<?xml version="1.0" encoding="utf-8"?>
<!-- Generator: Adobe Illustrator 19.0.0, SVG Export Plug-In . SVG Version: 6.00 Build 0)  -->
<svg version="1.1" id="Layer_1" xmlns="http://www.w3.org/2000/svg" xmlns:xlink="http://www.w3.org/1999/xlink" x="0px" y="0px"
	 viewBox="21 269 24 24" style="enable-background:new 21 269 24 24;" xml:space="preserve">
<style type="text/css">
	.st0{fill:none;}
	.st1{opacity:0.3;enable-background:new    ;}
</style>
<g>
	<polygon class="st0" points="21,269 45,269 45,293 21,293"/>
	<g class="st1">
		<path d="M42.7,290.7c-0.2,0.2-0.4,0.3-0.7,0.3l-8.8,0c-0.6,0-1-0.4-1-1s0.4-1,1-1l8.8,0c0.6,0,1,0.4,1,1
			C43,290.3,42.9,290.5,42.7,290.7z" fill="#000000"/>
	</g>
	<g class="st1">
		<path d="M42.7,287.6c-0.2,0.2-0.4,0.3-0.7,0.3l-5.7,0c-0.6,0-1-0.4-1-1s0.4-1,1-1l5.7,0c0.6,0,1,0.4,1,1
			C43,287.2,42.9,287.5,42.7,287.6z" fill="#000000"/>
	</g>
	<g class="st1">
		<path d="M42.7,284.6c-0.2,0.2-0.4,0.3-0.7,0.3l-2.6,0c-0.6,0-1-0.4-1-1s0.4-1,1-1l2.6,0c0.6,0,1,0.4,1,1
			C43,284.1,42.9,284.4,42.7,284.6z" fill="#000000"/>
	</g>
	<path d="M42.8,276.9l-13.8,13.8c-0.1,0.1-0.3,0.2-0.6,0.2h-4.6c-0.4,0-0.8-0.3-0.8-0.8v-4.6c0-0.2,0.1-0.4,0.2-0.6l13.8-13.8
		c0.3-0.3,0.8-0.3,1.1,0l4.6,4.6C43.1,276.1,43.1,276.6,42.8,276.9z" fill="#000000"/>
</g>
</svg>
