<?xml version="1.0" encoding="utf-8"?>
<!-- Generator: Adobe Illustrator 19.0.0, SVG Export Plug-In . SVG Version: 6.00 Build 0)  -->
<svg version="1.1" id="Capa_1" xmlns="http://www.w3.org/2000/svg" xmlns:xlink="http://www.w3.org/1999/xlink" x="0px" y="0px"
	 viewBox="21 269 24 24" style="enable-background:new 21 269 24 24;" xml:space="preserve">
<style type="text/css">
	.st0{fill:none;}
	.st1{opacity:0.3;enable-background:new    ;}
</style>
<g >
	<polygon class="st0" points="21,269 45,269 45,293 21,293"/>
	<path class="st1" d="M24,287.5h18c0.6,0,1,0.4,1,1l0,0c0,0.6-0.4,1-1,1H24c-0.6,0-1-0.4-1-1l0,0C23,287.9,23.4,287.5,24,287.5z" fill="##000000"/>
	<path d="M41,272.5H25c-0.6,0-1,0.4-1,1v12c0,0.6,0.4,1,1,1h16c0.6,0,1-0.4,1-1v-12C42,272.9,41.6,272.5,41,272.5z M30.4,284.5h-1.9
		c-1.1,0-2-0.9-2-2v-6c0-1.1,0.9-2,2-2h1.9c1.1,0,2,0.9,2,2v6C32.4,283.6,31.5,284.5,30.4,284.5z M28.7,276h1.5
		c0.4,0,0.8,0.4,0.8,0.9v5.3c0,0.5-0.3,0.9-0.8,0.9h-1.5c-0.4,0-0.7-0.4-0.7-0.9v-5.3C28,276.4,28.3,276,28.7,276z M38.4,282h-3.9
		c-0.6,0-1-0.4-1-1l0,0c0-0.6,0.4-1,1-1h3.9c0.6,0,1,0.4,1,1l0,0C39.4,281.6,39,282,38.4,282z M38.4,279h-3.9c-0.6,0-1-0.4-1-1l0,0
		c0-0.6,0.4-1,1-1h3.9c0.6,0,1,0.4,1,1l0,0C39.4,278.6,39,279,38.4,279z" fill="##000000"/>
</g>
</svg>
